# xmcd
#
# Track frame offsets:
#	150
#	16397
#	32101
#	45217
#	57287
#	70231
#	83059
#	98415
#	110791
#	121697
#	135605
#	150146
#	161566
#	176816
#	193567
#	210684
#
# Disc length: 3078 seconds
#
# Revision: 1
# Processed by: cddbd v1.5.2PL0 Copyright (c) Steve Scherf et al.
# Submitted via: EZCDAudioConverter 3.0.6.1
#
DISCID=c60c0410
DTITLE=Emmylou Harris and Carl Jackson - Love Hurts
DYEAR=1999
DGENRE=Country
TTITLE0=Gone, Gone, Gone
TTITLE1=Something Else To Keep Your Memory Green
TTITLE2=Under Your Spell Again
TTITLE3=Walk Through This World With Me
TTITLE4=I'll Never Love Another
TTITLE5=Something Draws Me To You
TTITLE6=When My Blue Moon Turns To Gold Again
TTITLE7=You Made A Memory Of Me
TTITLE8=I Take The Chance
TTITLE9=Before I Met You
TTITLE10=Always Needed You
TTITLE11=We Must Have Been Out Of Our Minds
TTITLE12=Dyin' On Sorrow's Wine
TTITLE13=The Best We Could Do
TTITLE14=Nobody's Darling But Mine
TTITLE15=Love Hurts
EXTD=
EXTT0=
EXTT1=
EXTT2=
EXTT3=
EXTT4=
EXTT5=
EXTT6=
EXTT7=
EXTT8=
EXTT9=
EXTT10=
EXTT11=
EXTT12=
EXTT13=
EXTT14=
EXTT15=
PLAYORDER=
